<svg viewBox="0 0 61 61" fill="none" xmlns="http://www.w3.org/2000/svg">
<circle cx="30.4653" cy="30.0987" r="30.0395" fill="url(#paint0_linear_530_338)"/>
<path d="M47.5791 29.2878L44.3138 23.6302C44.3836 23.4906 44.436 23.3334 44.436 23.1588C44.436 22.6349 43.9995 22.1983 43.4756 22.1809L39.861 15.9296C39.896 15.8248 39.9308 15.7201 39.9308 15.6153C39.9308 15.0566 39.4769 14.62 38.9355 14.62C38.6212 14.62 38.3593 14.7597 38.1672 14.9867H31.2175C31.0429 14.7598 30.781 14.6201 30.4667 14.6201C30.1524 14.6201 29.8905 14.7598 29.7158 14.9868H22.8011C22.609 14.7598 22.3471 14.6201 22.0327 14.6201C21.4915 14.6201 21.0374 15.0566 21.0374 15.6154C21.0374 15.7201 21.0724 15.8424 21.1073 15.9297L17.4578 22.2683C17.1086 22.4254 16.8641 22.7572 16.8641 23.1588C16.8641 23.1937 16.8816 23.2287 16.8816 23.2636L13.4067 29.2704C12.9352 29.3577 12.5859 29.7593 12.5859 30.2482C12.5859 30.7197 12.9177 31.1213 13.3717 31.2261L16.9689 37.4425C16.9339 37.5472 16.9164 37.6345 16.9164 37.7568C16.9164 38.2282 17.2482 38.6298 17.7022 38.7171L21.0724 44.5668C21.0374 44.6715 21.0025 44.7937 21.0025 44.916C21.0025 45.4747 21.4565 45.9113 21.9979 45.9113C22.3121 45.9113 22.5741 45.7716 22.7487 45.5621H29.7159C29.8905 45.7715 30.1699 45.9112 30.4667 45.9112C30.7635 45.9112 31.0429 45.7715 31.2175 45.562H38.2022C38.3768 45.7541 38.6387 45.8763 38.9181 45.8763C39.4769 45.8763 39.9134 45.4223 39.9134 44.881C39.9134 44.7762 39.896 44.6889 39.8611 44.6016L43.2312 38.7171C43.6852 38.6298 44.017 38.2281 44.017 37.7567C44.017 37.6519 43.9995 37.5472 43.9646 37.4424L47.5442 31.226C47.9982 31.1387 48.3475 30.7371 48.3475 30.2482C48.3474 29.7767 48.0156 29.3751 47.5791 29.2878ZM21.7009 42.9602L18.8547 38.0186H21.7009V42.9602ZM21.7009 37.4948H18.8547C18.8373 37.4249 18.8023 37.3551 18.7674 37.2852L21.7009 34.1946V37.4948ZM21.7009 33.4262L18.4182 36.9011C18.3309 36.8661 18.2435 36.8137 18.1562 36.7963L14.5243 30.5101C14.5592 30.4228 14.5592 30.3355 14.5592 30.2482C14.5592 30.1609 14.5592 30.0911 14.5417 30.0212L17.9293 24.1541C18.1039 24.1366 18.2785 24.0842 18.4357 23.9794L21.701 27.367L21.7009 33.4262ZM21.7009 26.7558L18.715 23.6652C18.8023 23.5255 18.8547 23.3509 18.8547 23.1588C18.8547 23.1414 18.8373 23.1064 18.8373 23.089L21.7009 22.0587V26.7558ZM21.7009 21.4999L18.8547 22.5301L21.7009 17.606V21.4999ZM42.9867 24.0493L43.0391 24.1366L40.7341 35.0327L36.5782 30.6498L42.9692 24.0319L42.9867 24.0493ZM30.7112 36.7264L31.462 37.4948H29.9778L30.7112 36.7264ZM30.6937 35.993L25.2632 30.4228L30.4492 24.9224L35.8623 30.6323L30.6937 35.993ZM31.0429 36.3772L36.2116 31.0165L40.6119 35.6613L40.2278 37.4948H32.143L31.0429 36.3772ZM38.4467 16.471C38.5165 16.5059 38.5863 16.5409 38.6736 16.5584L42.4453 23.1239V23.1588C42.4453 23.3509 42.4977 23.5255 42.585 23.6652L36.229 30.2656L30.816 24.5557L38.4467 16.471ZM37.853 16.3313L30.4492 24.1716L26.7299 20.2427L37.5735 16.3313H37.853ZM29.8031 16.3313C29.9777 16.5059 30.2047 16.6106 30.4667 16.6106C30.7287 16.6106 30.9556 16.5059 31.1303 16.3313H36.0195L26.3458 19.8236L23.0281 16.3313H29.8031ZM22.2249 16.698L22.2947 16.5584C22.3536 16.5433 22.4119 16.5258 22.4693 16.5059L25.8045 20.0158L22.2249 21.3079V16.698ZM22.2249 21.8666L26.1886 20.4348L30.0825 24.5557L24.8965 30.0387L22.2249 27.2972V21.8666ZM22.2249 27.9083L24.5996 30.3704L22.2249 32.8674V27.9083ZM22.2249 33.6358L24.9663 30.7372L30.3619 36.3423L29.2444 37.4948H22.2249V33.6358ZM22.6788 44.2C22.5741 44.0952 22.4518 44.0254 22.2947 43.973L22.2249 43.8682V38.0186H28.738L22.7661 44.2H22.6788ZM31.1477 44.2C30.9731 44.0429 30.7287 43.9207 30.4667 43.9207C30.2047 43.9207 29.9604 44.0429 29.7857 44.2H23.4995L29.4713 38.0186H31.9683L37.9402 44.2H31.1477ZM38.9705 43.4317L38.6911 43.9206C38.6038 43.9381 38.534 43.9729 38.4641 44.0079L32.6494 38.0186H40.1056L38.9705 43.4317ZM39.8086 41.9824L40.6468 38.0186H42.0786L39.8086 41.9824ZM42.0786 37.4948H40.7516L41.0484 36.1153L42.1659 37.3027C42.1311 37.3551 42.0961 37.4249 42.0786 37.4948ZM46.3917 30.4926L42.7771 36.7963C42.6898 36.8312 42.6025 36.8661 42.5152 36.9185L41.1706 35.4866L43.4232 24.8002L46.4091 29.9688C46.3917 30.0561 46.3567 30.1434 46.3567 30.2482C46.3567 30.3355 46.3742 30.4053 46.3917 30.4926Z" fill="white"/>
<defs>
<linearGradient id="paint0_linear_530_338" x1="9.81313" y1="6.06711" x2="53.7459" y2="52.6284" gradientUnits="userSpaceOnUse">
<stop stop-color="#89FFCD"/>
<stop offset="1" stop-color="#00C236"/>
</linearGradient>
</defs>
</svg>
