<svg viewBox="0 0 169 170" fill="none" xmlns="http://www.w3.org/2000/svg">
<circle opacity="0.1" cx="84.1975" cy="84.8272" r="84.1975" fill="#00FBA0"/>
<circle opacity="0.1" cx="84.1975" cy="84.8272" r="68.8889" fill="#00FBA0"/>
<circle opacity="0.2" cx="84.1974" cy="84.8271" r="53.5802" fill="#00FBA0"/>
<rect x="45.9258" y="46.5555" width="76.5432" height="76.5432" rx="38.2716" fill="#A7FFDF"/>
<path d="M98.0218 80.672C98.6424 80.672 99.1723 80.8909 99.6115 81.3287C100.051 81.7665 100.27 82.2948 100.27 82.9136C100.27 83.5324 100.051 84.0607 99.6115 84.4985C99.1723 84.9363 98.6424 85.1552 98.0218 85.1552H97.7583L95.7382 96.7486C95.6445 97.2857 95.3869 97.7293 94.9653 98.0796C94.5437 98.4298 94.0636 98.6049 93.5249 98.6049H71.0403C70.5016 98.6049 70.0215 98.4298 69.5999 98.0796C69.1783 97.7293 68.9207 97.2857 68.827 96.7486L66.8069 85.1552H66.5434C65.9227 85.1552 65.3928 84.9363 64.9536 84.4985C64.5145 84.0607 64.2949 83.5324 64.2949 82.9136C64.2949 82.2948 64.5145 81.7665 64.9536 81.3287C65.3928 80.8909 65.9227 80.672 66.5434 80.672H98.0218ZM72.6564 72.3359L71.0227 79.5512H68.704L70.4782 71.8281C70.7007 70.8007 71.2218 69.963 72.0416 69.315C72.8613 68.667 73.7982 68.343 74.8521 68.343H77.7857C77.7857 68.0395 77.8969 67.7768 78.1194 67.555C78.3419 67.3331 78.6054 67.2222 78.9099 67.2222H85.6553C85.9597 67.2222 86.2232 67.3331 86.4457 67.555C86.6682 67.7768 86.7795 68.0395 86.7795 68.343H89.713C90.767 68.343 91.7038 68.667 92.5236 69.315C93.3433 69.963 93.8645 70.8007 94.087 71.8281L95.8611 79.5512H93.5424L91.9088 72.3359C91.78 71.8222 91.5135 71.4019 91.1095 71.075C90.7055 70.7481 90.24 70.5847 89.713 70.5847H86.7795C86.7795 70.8882 86.6682 71.1509 86.4457 71.3727C86.2232 71.5946 85.9597 71.7055 85.6553 71.7055H78.9099C78.6054 71.7055 78.3419 71.5946 78.1194 71.3727C77.8969 71.1509 77.7857 70.8882 77.7857 70.5847H74.8521C74.3251 70.5847 73.8596 70.7481 73.4556 71.075C73.0516 71.4019 72.7852 71.8222 72.6564 72.3359Z" fill="#078758"/>
<path d="M102.614 84.4991C103.234 84.4991 103.764 84.718 104.203 85.1558C104.642 85.5937 104.862 86.122 104.862 86.7407C104.862 87.3595 104.642 87.8878 104.203 88.3256C103.764 88.7634 103.234 88.9824 102.614 88.9824H102.35L100.33 100.576C100.236 101.113 99.9787 101.556 99.5571 101.907C99.1355 102.257 98.6553 102.432 98.1167 102.432H75.6321C75.0934 102.432 74.6133 102.257 74.1917 101.907C73.7701 101.556 73.5125 101.113 73.4188 100.576L71.3987 88.9824H71.1352C70.5145 88.9824 69.9846 88.7634 69.5454 88.3256C69.1063 87.8878 68.8867 87.3595 68.8867 86.7407C68.8867 86.122 69.1063 85.5937 69.5454 85.1558C69.9846 84.718 70.5145 84.4991 71.1352 84.4991H102.614ZM77.4063 98.5093C77.7107 98.4859 77.9654 98.3546 78.1704 98.1152C78.3753 97.8759 78.4661 97.6044 78.4427 97.3009L77.8805 90.0156C77.8571 89.7121 77.7254 89.4581 77.4853 89.2538C77.2452 89.0495 76.973 88.959 76.6685 88.9824C76.364 89.0057 76.1093 89.1371 75.9044 89.3764C75.6994 89.6157 75.6087 89.8872 75.6321 90.1907L76.1942 97.476C76.2176 97.7679 76.3377 98.0131 76.5543 98.2115C76.771 98.41 77.0257 98.5093 77.3184 98.5093H77.4063ZM84.6259 97.3884V90.1032C84.6259 89.7996 84.5147 89.5369 84.2922 89.3151C84.0697 89.0933 83.8062 88.9824 83.5017 88.9824C83.1972 88.9824 82.9337 89.0933 82.7112 89.3151C82.4887 89.5369 82.3775 89.7996 82.3775 90.1032V97.3884C82.3775 97.692 82.4887 97.9547 82.7112 98.1765C82.9337 98.3983 83.1972 98.5093 83.5017 98.5093C83.8062 98.5093 84.0697 98.3983 84.2922 98.1765C84.5147 97.9547 84.6259 97.692 84.6259 97.3884ZM91.3713 97.3884V90.1032C91.3713 89.7996 91.26 89.5369 91.0375 89.3151C90.815 89.0933 90.5515 88.9824 90.2471 88.9824C89.9426 88.9824 89.6791 89.0933 89.4566 89.3151C89.2341 89.5369 89.1228 89.7996 89.1228 90.1032V97.3884C89.1228 97.692 89.2341 97.9547 89.4566 98.1765C89.6791 98.3983 89.9426 98.5093 90.2471 98.5093C90.5515 98.5093 90.815 98.3983 91.0375 98.1765C91.26 97.9547 91.3713 97.692 91.3713 97.3884ZM97.5545 97.476L98.1167 90.1907C98.1401 89.8872 98.0493 89.6157 97.8444 89.3764C97.6394 89.1371 97.3847 89.0057 97.0803 88.9824C96.7758 88.959 96.5035 89.0495 96.2634 89.2538C96.0234 89.4581 95.8916 89.7121 95.8682 90.0156L95.3061 97.3009C95.2827 97.6044 95.3734 97.8759 95.5784 98.1152C95.7833 98.3546 96.038 98.4859 96.3425 98.5093H96.4303C96.7231 98.5093 96.9778 98.41 97.1944 98.2115C97.4111 98.0131 97.5311 97.7679 97.5545 97.476ZM77.2482 76.1631L75.6145 83.3783H73.2958L75.07 75.6552C75.2925 74.6278 75.8136 73.7901 76.6334 73.1421C77.4531 72.4942 78.39 72.1702 79.4439 72.1702H82.3775C82.3775 71.8666 82.4887 71.6039 82.7112 71.3821C82.9337 71.1603 83.1972 71.0494 83.5017 71.0494H90.2471C90.5515 71.0494 90.815 71.1603 91.0375 71.3821C91.26 71.6039 91.3713 71.8666 91.3713 72.1702H94.3048C95.3588 72.1702 96.2956 72.4942 97.1154 73.1421C97.9351 73.7901 98.4563 74.6278 98.6788 75.6552L100.453 83.3783H98.1342L96.5006 76.1631C96.3718 75.6494 96.1053 75.2291 95.7013 74.9022C95.2973 74.5753 94.8318 74.4118 94.3048 74.4118H91.3713C91.3713 74.7154 91.26 74.9781 91.0375 75.1999C90.815 75.4217 90.5515 75.5326 90.2471 75.5326H83.5017C83.1972 75.5326 82.9337 75.4217 82.7112 75.1999C82.4887 74.9781 82.3775 74.7154 82.3775 74.4118H79.4439C78.9169 74.4118 78.4514 74.5753 78.0474 74.9022C77.6434 75.2291 77.377 75.6494 77.2482 76.1631Z" fill="#00FBA0"/>
</svg>
