<svg width="180" height="60" viewBox="0 10 180 60" fill="none" xmlns="http://www.w3.org/2000/svg">
    <path d="M92.9503 24.727C90.0931 24.727 88.6645 26.2822 88.6645 29.3925V31.1285H96.6394V36.5536H88.8815V59.8813H82.1002V36.5536H77.3262V31.1285H82.1002V29.284C82.1002 26.1737 83.0044 23.7324 84.8127 21.9602C86.6211 20.1519 89.1709 19.2477 92.4621 19.2477C95.0661 19.2477 97.1095 19.7721 98.5924 20.8209L96.6936 25.9205C95.5363 25.1248 94.2885 24.727 92.9503 24.727Z" fill="white"/>
    <path d="M64.3119 30.9116H71.0932V59.8814H64.3119V30.9116ZM67.7297 26.1376C66.5 26.1376 65.4693 25.7578 64.6374 24.9983C63.8056 24.2026 63.3896 23.2261 63.3896 22.0688C63.3896 20.9114 63.8056 19.953 64.6374 19.1935C65.4693 18.3978 66.5 18 67.7297 18C68.9594 18 69.9901 18.3798 70.822 19.1393C71.6538 19.8626 72.0697 20.7849 72.0697 21.906C72.0697 23.0995 71.6538 24.1122 70.822 24.9441C70.0263 25.7397 68.9955 26.1376 67.7297 26.1376Z" fill="white"/>
    <path d="M47.8884 35.1431C49.8414 32.1051 53.2773 30.5861 58.196 30.5861V37.0419C57.6174 36.9334 57.0929 36.8791 56.6228 36.8791C53.9826 36.8791 51.921 37.6567 50.4382 39.2119C48.9554 40.7309 48.2139 42.9371 48.2139 45.8305V59.8813H41.4326V30.9116H47.8884V35.1431Z" fill="white"/>
    <path d="M28.6443 40.4597H35.3171V55.5956C33.3641 57.1508 31.0855 58.3443 28.4815 59.1761C25.8775 60.008 23.2011 60.4239 20.4524 60.4239C16.5826 60.4239 13.0925 59.5921 9.98209 57.9284C6.87173 56.2285 4.43046 53.8958 2.65827 50.9301C0.886092 47.9644 0 44.6189 0 40.8937C0 37.1685 0.886092 33.8231 2.65827 30.8574C4.43046 27.8917 6.87173 25.577 9.98209 23.9133C13.1286 22.2135 16.6549 21.3635 20.5609 21.3635C23.7436 21.3635 26.637 21.8879 29.241 22.9368C31.8451 23.9856 34.0332 25.5227 35.8053 27.5481L31.3568 31.8881C28.4634 28.9948 24.9733 27.5481 20.8864 27.5481C18.2101 27.5481 15.8231 28.1087 13.7254 29.2299C11.6639 30.351 10.0363 31.9243 8.84283 33.9496C7.68549 35.975 7.10682 38.2897 7.10682 40.8937C7.10682 43.4254 7.68549 45.7039 8.84283 47.7293C10.0363 49.7546 11.6639 51.346 13.7254 52.5033C15.8231 53.6607 18.192 54.2393 20.8322 54.2393C23.7979 54.2393 26.4019 53.5883 28.6443 52.2863V40.4597Z" fill="white"/>
    <path d="M167.269 30.5861C170.922 30.5861 173.851 31.653 176.058 33.7868C178.264 35.9207 179.367 39.0853 179.367 43.2807V59.8813H172.586V44.1487C172.586 41.617 171.989 39.7182 170.795 38.4524C169.602 37.1504 167.902 36.4994 165.696 36.4994C163.2 36.4994 161.229 37.2589 159.782 38.7779C158.336 40.2607 157.612 42.4127 157.612 45.2337V59.8813H150.831V30.9116H157.287V34.6548C158.408 33.3167 159.819 32.304 161.518 31.6168C163.218 30.9296 165.135 30.5861 167.269 30.5861Z" fill="#175BFF"/>
    <path d="M107.813 54.1198C102.093 47.7555 102.695 38.8966 103.769 35.2627H118.595L107.813 54.1198Z" fill="#175BFF"/>
    <path d="M104.309 34.0841C106.907 26.0381 114.767 22.1886 118.402 21.3199L125.749 34.0463L104.309 34.0841Z" fill="#175BFF"/>
    <path d="M119.846 21.1896C128.113 19.4167 135.377 24.2991 137.946 27.0122L130.599 39.7385L119.846 21.1896Z" fill="#175BFF"/>
    <path d="M138.991 27.8677C144.71 34.232 144.108 43.0909 143.034 46.7249H128.208L138.991 27.8677Z" fill="#175BFF"/>
    <path d="M142.458 47.861C139.86 55.907 131.999 59.7565 128.365 60.6252L121.017 47.8988L142.458 47.861Z" fill="#175BFF"/>
    <path d="M127.027 60.9615C118.76 62.7344 111.496 57.852 108.926 55.1389L116.274 42.4126L127.027 60.9615Z" fill="#175BFF"/>
</svg>