<svg viewBox="0 0 169 169" fill="none" xmlns="http://www.w3.org/2000/svg">
<circle opacity="0.1" cx="84.1975" cy="84.1975" r="84.1975" fill="#FB00D3"/>
<circle opacity="0.1" cx="84.1975" cy="84.1975" r="68.8889" fill="#FB00D3"/>
<circle opacity="0.2" cx="84.1974" cy="84.1976" r="53.5802" fill="#FB00D3"/>
<rect x="45.9258" y="45.9259" width="76.5432" height="76.5432" rx="38.2716" fill="#F98BE2"/>
<path d="M68.9166 96.4444C68.0364 96.4444 67.3015 96.1497 66.7122 95.5604C66.1215 94.9697 65.8262 94.2342 65.8262 93.354V68.9176C65.8262 68.0373 66.1215 67.3025 66.7122 66.7131C67.3015 66.1225 68.0364 65.8271 68.9166 65.8271H93.353C94.2333 65.8271 94.9681 66.1225 95.5575 66.7131C96.1481 67.3025 96.4435 68.0373 96.4435 68.9176V93.354C96.4435 94.2342 96.1488 94.9691 95.5594 95.5584C94.9687 96.1491 94.2333 96.4444 93.353 96.4444H68.9166Z" fill="#B60090"/>
<path d="M79.8274 95.9431C80.2446 95.9431 80.5935 95.8021 80.8742 95.5202C81.1548 95.237 81.2951 94.8862 81.2951 94.4677C81.2951 94.0493 81.1548 93.7004 80.8742 93.421C80.5909 93.1403 80.2401 93 79.8217 93C79.4033 93 79.0537 93.1416 78.773 93.4248C78.4924 93.7068 78.3521 94.0569 78.3521 94.4754C78.3521 94.8925 78.4937 95.2414 78.7769 95.5221C79.0588 95.8028 79.409 95.9431 79.8274 95.9431ZM79.8274 88.7308C80.2446 88.7308 80.5935 88.5898 80.8742 88.3079C81.1548 88.0247 81.2951 87.6739 81.2951 87.2554C81.2951 86.837 81.1548 86.4881 80.8742 86.2087C80.5909 85.9281 80.2401 85.7877 79.8217 85.7877C79.4033 85.7877 79.0537 85.9287 78.773 86.2106C78.4924 86.4938 78.3521 86.8447 78.3521 87.2631C78.3521 87.6815 78.4937 88.0304 78.7769 88.3098C79.0588 88.5905 79.409 88.7308 79.8274 88.7308ZM79.8274 81.5185C80.2446 81.5185 80.5935 81.3769 80.8742 81.0937C81.1548 80.8118 81.2951 80.4616 81.2951 80.0432C81.2951 79.626 81.1548 79.2771 80.8742 78.9964C80.5909 78.7158 80.2401 78.5754 79.8217 78.5754C79.4033 78.5754 79.0537 78.7164 78.773 78.9983C78.4924 79.2815 78.3521 79.6324 78.3521 80.0508C78.3521 80.4692 78.4937 80.8182 78.7769 81.0975C79.0588 81.3782 79.409 81.5185 79.8274 81.5185ZM85.7117 95.4303H96.0163V93.5167H85.7117V95.4303ZM85.7117 88.2161H96.0163V86.3025H85.7117V88.2161ZM85.7117 81.0019H96.0163V79.0883H85.7117V81.0019ZM75.0397 102.568C74.1594 102.568 73.4246 102.273 72.8352 101.684C72.2445 101.093 71.9492 100.358 71.9492 99.4775V75.0411C71.9492 74.1608 72.2445 73.426 72.8352 72.8366C73.4246 72.246 74.1594 71.9506 75.0397 71.9506H99.4761C100.356 71.9506 101.091 72.246 101.681 72.8366C102.271 73.426 102.567 74.1608 102.567 75.0411V99.4775C102.567 100.358 102.272 101.093 101.682 101.682C101.092 102.273 100.356 102.568 99.4761 102.568H75.0397Z" fill="#FB00D3"/>
<path d="M79.8289 95.9431C80.246 95.9431 80.595 95.8021 80.8756 95.5202C81.1563 95.237 81.2966 94.8862 81.2966 94.4677C81.2966 94.0493 81.1563 93.7004 80.8756 93.421C80.5924 93.1403 80.2416 93 79.8231 93C79.4047 93 79.0552 93.1416 78.7745 93.4248C78.4938 93.7068 78.3535 94.0569 78.3535 94.4754C78.3535 94.8925 78.4951 95.2415 78.7783 95.5221C79.0603 95.8028 79.4104 95.9431 79.8289 95.9431ZM79.8289 88.7308C80.246 88.7308 80.595 88.5898 80.8756 88.3079C81.1563 88.0247 81.2966 87.6739 81.2966 87.2554C81.2966 86.837 81.1563 86.4881 80.8756 86.2087C80.5924 85.9281 80.2416 85.7877 79.8231 85.7877C79.4047 85.7877 79.0552 85.9287 78.7745 86.2106C78.4938 86.4938 78.3535 86.8447 78.3535 87.2631C78.3535 87.6815 78.4951 88.0304 78.7783 88.3098C79.0603 88.5905 79.4104 88.7308 79.8289 88.7308ZM79.8289 81.5185C80.246 81.5185 80.595 81.3769 80.8756 81.0937C81.1563 80.8118 81.2966 80.4616 81.2966 80.0432C81.2966 79.626 81.1563 79.2771 80.8756 78.9964C80.5924 78.7158 80.2416 78.5754 79.8231 78.5754C79.4047 78.5754 79.0552 78.7164 78.7745 78.9983C78.4938 79.2816 78.3535 79.6324 78.3535 80.0508C78.3535 80.4692 78.4951 80.8182 78.7783 81.0975C79.0603 81.3782 79.4104 81.5185 79.8289 81.5185ZM85.7131 95.4303H96.0178V93.5167H85.7131V95.4303ZM85.7131 88.2161H96.0178V86.3025H85.7131V88.2161ZM85.7131 81.0019H96.0178V79.0883H85.7131V81.0019Z" fill="#111833"/>
</svg>
