<svg viewBox="0 0 169 169" fill="none" xmlns="http://www.w3.org/2000/svg">
<circle opacity="0.1" cx="84.3948" cy="84.1975" r="84.1975" fill="#4100FB"/>
<circle opacity="0.1" cx="84.3947" cy="84.1975" r="68.8889" fill="#4100FB"/>
<circle opacity="0.2" cx="84.3947" cy="84.1976" r="53.5802" fill="#4100FB"/>
<rect x="46.123" y="45.9259" width="76.5432" height="76.5432" rx="38.2716" fill="#A889FF"/>
<path d="M76.334 83.8032C78.0167 83.8032 79.6306 83.1385 80.8205 81.9553C82.0104 80.7722 82.6789 79.1675 82.6789 77.4942C82.6789 75.8209 82.0104 74.2162 80.8205 73.033C79.6306 71.8499 78.0167 71.1852 76.334 71.1852C74.6512 71.1852 73.0373 71.8499 71.8474 73.033C70.6575 74.2162 69.989 75.8209 69.989 77.4942C69.989 79.1675 70.6575 80.7722 71.8474 81.9553C73.0373 83.1385 74.6512 83.8032 76.334 83.8032ZM90.6101 83.8032C91.8722 83.8032 93.0826 83.3047 93.975 82.4173C94.8674 81.5299 95.3688 80.3264 95.3688 79.0715C95.3688 77.8165 94.8674 76.613 93.975 75.7256C93.0826 74.8382 91.8722 74.3397 90.6101 74.3397C89.348 74.3397 88.1376 74.8382 87.2452 75.7256C86.3527 76.613 85.8514 77.8165 85.8514 79.0715C85.8514 80.3264 86.3527 81.5299 87.2452 82.4173C88.1376 83.3047 89.348 83.8032 90.6101 83.8032ZM68.9976 86.1691C68.2088 86.1691 67.4523 86.4807 66.8946 87.0353C66.3368 87.5899 66.0234 88.3421 66.0234 89.1264V90.1122C66.0234 90.1122 66.0234 97.2099 76.334 97.2099C86.6445 97.2099 86.6445 90.1122 86.6445 90.1122V89.1264C86.6445 88.3421 86.3311 87.5899 85.7734 87.0353C85.2156 86.4807 84.4591 86.1691 83.6703 86.1691H68.9976ZM86.3859 94.9142C87.4773 95.3542 88.8597 95.6326 90.6093 95.6326C98.937 95.6326 98.937 89.3236 98.937 89.3236V89.1264C98.937 88.3422 98.6238 87.5901 98.0662 87.0356C97.5086 86.481 96.7523 86.1693 95.9636 86.1691H87.1259C87.8391 86.991 88.2307 88.0409 88.2291 89.1264V90.1477L88.2283 90.1927C88.2237 90.3457 88.2131 90.4986 88.1966 90.6509C88.1573 91.0029 88.0934 91.3518 88.0055 91.695C87.7051 92.8715 87.1527 93.9696 86.3859 94.9142Z" fill="#3208AA"/>
<path d="M82.457 87.6304C84.1398 87.6304 85.7537 86.9657 86.9436 85.7825C88.1335 84.5993 88.802 82.9946 88.802 81.3213C88.802 79.6481 88.1335 78.0434 86.9436 76.8602C85.7537 75.677 84.1398 75.0123 82.457 75.0123C80.7742 75.0123 79.1604 75.677 77.9705 76.8602C76.7806 78.0434 76.1121 79.6481 76.1121 81.3213C76.1121 82.9946 76.7806 84.5993 77.9705 85.7825C79.1604 86.9657 80.7742 87.6304 82.457 87.6304ZM96.7331 87.6304C97.9952 87.6304 99.2056 87.1318 100.098 86.2445C100.99 85.3571 101.492 84.1535 101.492 82.8986C101.492 81.6437 100.99 80.4401 100.098 79.5527C99.2056 78.6654 97.9952 78.1668 96.7331 78.1668C95.471 78.1668 94.2606 78.6654 93.3682 79.5527C92.4758 80.4401 91.9744 81.6437 91.9744 82.8986C91.9744 84.1535 92.4758 85.3571 93.3682 86.2445C94.2606 87.1318 95.471 87.6304 96.7331 87.6304ZM75.1207 89.9962C74.3319 89.9962 73.5754 90.3078 73.0176 90.8624C72.4598 91.417 72.1465 92.1693 72.1465 92.9536V93.9394C72.1465 93.9394 72.1465 101.037 82.457 101.037C92.7675 101.037 92.7675 93.9394 92.7675 93.9394V92.9536C92.7675 92.1693 92.4542 91.417 91.8964 90.8624C91.3386 90.3078 90.5822 89.9962 89.7933 89.9962H75.1207ZM92.509 98.7413C93.6003 99.1814 94.9827 99.4598 96.7323 99.4598C105.06 99.4598 105.06 93.1507 105.06 93.1507V92.9536C105.06 92.1694 104.747 91.4173 104.189 90.8627C103.632 90.3081 102.875 89.9965 102.087 89.9962H93.249C93.9621 90.8182 94.3538 91.868 94.3522 92.9536V93.9749L94.3514 94.0198C94.3467 94.1729 94.3362 94.3257 94.3197 94.478C94.2804 94.83 94.2165 95.1789 94.1285 95.5222C93.8282 96.6987 93.2757 97.7968 92.509 98.7413Z" fill="#4100FB"/>
</svg>
