<svg viewBox="0 0 61 61" fill="none" xmlns="http://www.w3.org/2000/svg">
<circle cx="30.5688" cy="30.0987" r="30.0395" fill="url(#paint0_linear_530_328)"/>
<path d="M34.6693 14.7034C35.4851 14.7014 36.2934 14.8604 37.0477 15.1713C37.8021 15.4821 38.4877 15.9387 39.0653 16.5149C39.6429 17.0912 40.1012 17.7757 40.4138 18.5292C40.7265 19.2828 40.8875 20.0907 40.8875 20.9066V29.7081C40.8875 30.5247 40.7266 31.3333 40.4141 32.0877C40.1016 32.8422 39.6436 33.5276 39.0662 34.1051C38.4888 34.6825 37.8033 35.1405 37.0489 35.453C36.2944 35.7655 35.4859 35.9263 34.6693 35.9263H25.312C23.6628 35.9263 22.0812 35.2712 20.915 34.1051C19.7489 32.9389 19.0938 31.3573 19.0938 29.7081V20.9066C19.0938 20.0907 19.2547 19.2828 19.5674 18.5292C19.8801 17.7757 20.3383 17.0912 20.9159 16.5149C21.4936 15.9387 22.1792 15.4821 22.9335 15.1713C23.6878 14.8604 24.4961 14.7014 25.312 14.7034H34.6693ZM30.4037 28.4765C31.0311 28.4795 31.6453 28.2962 32.1684 27.9497C32.6916 27.6033 33.1001 27.1094 33.3423 26.5306C33.5844 25.9518 33.6494 25.3141 33.5288 24.6983C33.4082 24.0826 33.1075 23.5165 32.6649 23.0718C32.2223 22.6271 31.6577 22.3237 31.0425 22.2002C30.4273 22.0767 29.7893 22.1386 29.2094 22.378C28.6294 22.6174 28.1336 23.0236 27.7847 23.5451C27.4358 24.0666 27.2495 24.6799 27.2495 25.3074C27.2475 25.7228 27.3277 26.1346 27.4853 26.519C27.6429 26.9034 27.8749 27.2529 28.168 27.5474C28.4611 27.8419 28.8095 28.0755 29.1931 28.235C29.5768 28.3944 29.9882 28.4765 30.4037 28.4765ZM30.2234 36.8575L37.4179 44.2623H22.5784L30.2234 36.8575ZM34.7293 13.1864H25.312C23.2644 13.1864 21.3008 13.9998 19.853 15.4476C18.4052 16.8954 17.5918 18.859 17.5918 20.9066V29.7081C17.5918 31.7557 18.4052 33.7193 19.853 35.1671C21.3008 36.6149 23.2644 37.4283 25.312 37.4283H27.4898L21.4819 43.2109C21.232 43.4148 21.0544 43.6938 20.9753 44.0065C20.8963 44.3192 20.92 44.6491 21.043 44.9473C21.166 45.2455 21.3817 45.4962 21.6582 45.6622C21.9347 45.8283 22.2573 45.9009 22.5784 45.8694H37.4179C37.7127 45.8692 38.0009 45.7822 38.2467 45.6192C38.4924 45.4563 38.6847 45.2247 38.7997 44.9532C38.9147 44.6797 38.9461 44.3782 38.89 44.0868C38.8339 43.7955 38.6927 43.5273 38.4843 43.316L32.8218 37.4283H34.6242C35.638 37.4283 36.6419 37.2286 37.5786 36.8406C38.5152 36.4527 39.3663 35.884 40.0832 35.1671C40.8001 34.4502 41.3687 33.5992 41.7567 32.6625C42.1447 31.7259 42.3444 30.722 42.3444 29.7081V20.9066C42.3404 18.8617 41.5253 16.9019 40.0779 15.4573C38.6305 14.0127 36.6691 13.2014 34.6242 13.2014L34.7293 13.1864ZM30.4637 26.9595C30.1311 26.9715 29.8024 26.8836 29.5201 26.7072C29.2378 26.5308 29.0148 26.2739 28.8798 25.9696C28.7448 25.6653 28.704 25.3276 28.7626 24.9999C28.8212 24.6722 28.9765 24.3696 29.2086 24.1309C29.4408 23.8923 29.739 23.7286 30.0649 23.661C30.3909 23.5934 30.7296 23.6248 31.0375 23.7514C31.3454 23.8779 31.6084 24.0938 31.7925 24.3711C31.9767 24.6484 32.0736 24.9745 32.0708 25.3074C32.0708 25.7495 31.8952 26.1736 31.5825 26.4862C31.2699 26.7989 30.8458 26.9745 30.4037 26.9745L30.4637 26.9595Z" fill="white"/>
<defs>
<linearGradient id="paint0_linear_530_328" x1="9.91665" y1="6.06711" x2="53.8495" y2="52.6284" gradientUnits="userSpaceOnUse">
<stop stop-color="#0AE1FF"/>
<stop offset="0.0001" stop-color="#0AE1FF"/>
<stop offset="1" stop-color="#004AFF"/>
</linearGradient>
</defs>
</svg>
