<svg viewBox="0 0 170 170" fill="none" xmlns="http://www.w3.org/2000/svg">
<circle opacity="0.1" cx="84.8655" cy="84.8272" r="84.1975" fill="#FBF100"/>
<circle opacity="0.1" cx="84.8654" cy="84.8272" r="68.8889" fill="#FBF100"/>
<circle opacity="0.2" cx="84.8654" cy="84.8272" r="53.5802" fill="#FBF100"/>
<rect x="46.5938" y="46.5556" width="76.5432" height="76.5432" rx="38.2716" fill="#FFFCB0"/>
<path d="M96.188 68.3263C95.4316 67.6311 94.2375 67.3033 92.5769 67.2241L68.9198 67.2223C67.3943 67.2799 66.2452 67.6131 65.4492 68.2975C64.581 69.0395 64.2028 70.2264 64.1992 71.8042V93.1199C64.3379 94.5931 64.6855 95.6468 65.3105 96.3852C66.0003 97.2011 67.1584 97.6441 68.7739 97.8315L92.5174 97.8369C94.2159 97.8729 95.4874 97.5487 96.2871 96.7382C97.0634 95.9511 97.3947 94.739 97.3947 93.1181V71.3287C97.3191 70.0103 96.9355 69.0143 96.188 68.3263Z" fill="#9B9500"/>
<path d="M100.222 80.4295C100.222 78.8104 98.8788 77.4974 97.2218 77.4974H85.2213C83.5643 77.4974 82.2207 78.8104 82.2207 80.4295V84.4135C82.2207 86.0309 83.5643 87.3457 85.2213 87.3457H97.2218C98.8788 87.3457 100.222 86.0327 100.222 84.4135V80.4295Z" fill="#111833"/>
<path d="M88.219 80.9915C87.3905 80.9915 86.7188 81.6399 86.7188 82.4378C86.7188 83.2375 87.3905 83.884 88.219 83.884C89.0475 83.884 89.7193 83.2357 89.7193 82.4378C89.7193 81.6381 89.0475 80.9897 88.219 80.9897" fill="#9B9500"/>
<path d="M101.547 73.6843C100.791 72.9891 99.5968 72.6613 97.9363 72.5821L74.2792 72.5803C72.7537 72.6379 71.6046 72.9711 70.8085 73.6555C69.9404 74.3975 69.5622 75.5844 69.5586 77.1622V98.4779C69.6973 99.9511 70.0449 101.005 70.6699 101.743C71.3597 102.559 72.5178 103.002 74.1333 103.189L97.8768 103.195C99.5752 103.231 100.847 102.907 101.646 102.096C102.423 101.309 102.754 100.097 102.754 98.4761V76.6867C102.678 75.3683 102.295 74.3723 101.547 73.6843Z" fill="#FFF500"/>
<path d="M102.581 83.6208C103.832 83.6208 104.816 84.6077 104.816 85.7876V89.7715C104.816 90.9514 103.832 91.9382 102.581 91.9382H90.5807C89.33 91.9382 88.3455 90.9499 88.3455 89.7715V85.7876C88.3455 84.6077 89.3297 83.6208 90.5807 83.6208H102.581Z" stroke="#111833" stroke-width="1.53086"/>
<path d="M93.5784 86.3495C92.7499 86.3495 92.0781 86.9979 92.0781 87.7958C92.0781 88.5955 92.7499 89.242 93.5784 89.242C94.4069 89.242 95.0787 88.5937 95.0787 87.7958C95.0787 86.9961 94.4069 86.3477 93.5784 86.3477" fill="#111833"/>
</svg>
